Sprint_06300001_forces_filt999Hz.mot
version=1
nRows=24
nColumns=19
inDegrees=yes
endheader
time	R_ground_force_vx	R_ground_force_vy	R_ground_force_vz	R_ground_force_px	R_ground_force_py	R_ground_force_pz	R_ground_torque_x	R_ground_torque_y	R_ground_torque_z	L_ground_force_vx	L_ground_force_vy	L_ground_force_vz	L_ground_force_px	L_ground_force_py	L_ground_force_pz	L_ground_torque_x	L_ground_torque_y	L_ground_torque_z	
1.794500	  0.000000	  0.000000	  0.000000	  0.159521	  0.000000	 -0.204910	  0.000000	  0.000000	  0.000000	  0.000000	  0.000000	  0.000000	  1.377457	  0.000000	 -0.373105	  0.000000	  0.000000	  0.000000
1.795000	  0.000000	  0.000000	  0.000000	  0.158227	  0.000000	 -0.204756	  0.000000	  0.000000	  0.000000	  0.000000	  0.000000	  0.000000	  1.379376	  0.000000	 -0.373355	  0.000000	  0.000000	  0.000000
1.795500	  0.000000	  0.000000	  0.000000	  0.157241	  0.000000	 -0.204657	  0.000000	  0.000000	  0.000000	  0.000000	  0.000000	  0.000000	  1.381055	  0.000000	 -0.373586	  0.000000	  0.000000	  0.000000
1.796000	  0.000000	  0.000000	  0.000000	  0.156256	  0.000000	 -0.204559	  0.000000	  0.000000	  0.000000	  0.000000	  0.000000	  0.000000	  1.382733	  0.000000	 -0.373816	  0.000000	  0.000000	  0.000000
1.796500	  0.000000	  0.000000	  0.000000	  0.155271	  0.000000	 -0.204461	  0.000000	  0.000000	  0.000000	  0.000000	  0.000000	  0.000000	  1.384411	  0.000000	 -0.374047	  0.000000	  0.000000	  0.000000
1.797000	  0.000000	  0.000000	  0.000000	  0.154285	  0.000000	 -0.204362	  0.000000	  0.000000	  0.000000	  0.000000	  0.000000	  0.000000	  1.386090	  0.000000	 -0.374277	  0.000000	  0.000000	  0.000000
1.797500	  0.000000	  0.000000	  0.000000	  0.153300	  0.000000	 -0.204264	  0.000000	  0.000000	  0.000000	  0.000000	  0.000000	  0.000000	  1.387768	  0.000000	 -0.374508	  0.000000	  0.000000	  0.000000
1.798000	  0.000000	  0.000000	  0.000000	  0.152315	  0.000000	 -0.204166	  0.000000	  0.000000	  0.000000	  0.000000	  0.000000	  0.000000	  1.389447	  0.000000	 -0.374738	  0.000000	  0.000000	  0.000000
1.798500	  0.000000	  0.000000	  0.000000	  0.151329	  0.000000	 -0.204067	  0.000000	  0.000000	  0.000000	  0.000000	  0.000000	  0.000000	  1.391125	  0.000000	 -0.374969	  0.000000	  0.000000	  0.000000
1.799000	  0.000000	  0.000000	  0.000000	  0.150344	  0.000000	 -0.203969	  0.000000	  0.000000	  0.000000	  0.000000	  0.000000	  0.000000	  1.392804	  0.000000	 -0.375199	  0.000000	  0.000000	  0.000000
1.799500	  0.000000	  0.000000	  0.000000	  0.149359	  0.000000	 -0.203871	  0.000000	  0.000000	  0.000000	  0.000000	  0.000000	  0.000000	  1.394482	  0.000000	 -0.375430	  0.000000	  0.000000	  0.000000
1.800000	  0.000000	  0.000000	  0.000000	  0.148373	  0.000000	 -0.203772	  0.000000	  0.000000	  0.000000	  0.000000	  0.000000	  0.000000	  1.396161	  0.000000	 -0.375660	  0.000000	  0.000000	  0.000000
1.800500	  0.000000	  0.000000	  0.000000	  0.147500	  0.000000	 -0.203724	  0.000000	  0.000000	  0.000000	  0.000000	  0.000000	  0.000000	  1.397410	  0.000000	 -0.375839	  0.000000	  0.000000	  0.000000
1.801000	  0.000000	  0.000000	  0.000000	  0.146626	  0.000000	 -0.203676	  0.000000	  0.000000	  0.000000	  0.000000	  0.000000	  0.000000	  1.398660	  0.000000	 -0.376018	  0.000000	  0.000000	  0.000000
1.801500	  0.000000	  0.000000	  0.000000	  0.145753	  0.000000	 -0.203627	  0.000000	  0.000000	  0.000000	  0.000000	  0.000000	  0.000000	  1.399910	  0.000000	 -0.376197	  0.000000	  0.000000	  0.000000
1.802000	  0.000000	  0.000000	  0.000000	  0.144879	  0.000000	 -0.203579	  0.000000	  0.000000	  0.000000	  0.000000	  0.000000	  0.000000	  1.401160	  0.000000	 -0.376375	  0.000000	  0.000000	  0.000000
1.802500	  0.000000	  0.000000	  0.000000	  0.144006	  0.000000	 -0.203531	  0.000000	  0.000000	  0.000000	  0.000000	  0.000000	  0.000000	  1.402410	  0.000000	 -0.376554	  0.000000	  0.000000	  0.000000
1.803000	  0.000000	  0.000000	  0.000000	  0.143132	  0.000000	 -0.203482	  0.000000	  0.000000	  0.000000	  0.000000	  0.000000	  0.000000	  1.403659	  0.000000	 -0.376733	  0.000000	  0.000000	  0.000000
1.803500	  0.000000	  0.000000	  0.000000	  0.142258	  0.000000	 -0.203434	  0.000000	  0.000000	  0.000000	  0.000000	  0.000000	  0.000000	  1.404909	  0.000000	 -0.376912	  0.000000	  0.000000	  0.000000
1.804000	  0.000000	  0.000000	  0.000000	  0.141385	  0.000000	 -0.203386	  0.000000	  0.000000	  0.000000	  0.000000	  0.000000	  0.000000	  1.406159	  0.000000	 -0.377091	  0.000000	  0.000000	  0.000000
1.804500	  0.000000	  0.000000	  0.000000	  0.140511	  0.000000	 -0.203337	  0.000000	  0.000000	  0.000000	  0.000000	  0.000000	  0.000000	  1.407409	  0.000000	 -0.377269	  0.000000	  0.000000	  0.000000
1.805000	  0.000000	  0.000000	  0.000000	  0.139638	  0.000000	 -0.203289	  0.000000	  0.000000	  0.000000	  0.000000	  0.000000	  0.000000	  1.408659	  0.000000	 -0.377448	  0.000000	  0.000000	  0.000000
1.805500	  0.000000	  0.000000	  0.000000	  0.138928	  0.000000	 -0.203203	  0.000000	  0.000000	  0.000000	  0.000000	  0.000000	  0.000000	  1.409514	  0.000000	 -0.377586	  0.000000	  0.000000	  0.000000
1.806000	  0.000000	  0.000000	  0.000000	  0.138219	  0.000000	 -0.203117	  0.000000	  0.000000	  0.000000	  0.000000	  0.000000	  0.000000	  1.410370	  0.000000	 -0.377725	  0.000000	  0.000000	  0.000000
